<?xml version="1.0" encoding="utf-8"?>
<!-- Generator: Adobe Illustrator 25.0.1, SVG Export Plug-In . SVG Version: 6.00 Build 0)  -->
<svg version="1.1" xmlns="http://www.w3.org/2000/svg" xmlns:xlink="http://www.w3.org/1999/xlink" x="0px" y="0px"
	 viewBox="0 0 48.34 86.33" style="enable-background:new 0 0 48.34 86.33;" xml:space="preserve">
<style type="text/css">
	.st0{fill:#B5B5B6;}
	.st1{fill:#4C4948;}
	.st2{fill:#9D2D31;}
	.st3{fill:none;stroke:#4C4948;stroke-width:0.25;stroke-miterlimit:10;}
	.st4{opacity:0.38;}
	.st5{clip-path:url(#SVGID_4_);}
	.st6{fill:none;stroke:#9FA0A0;stroke-width:0.25;stroke-miterlimit:10;}
	.st7{fill:none;stroke:#727171;stroke-width:0.25;stroke-miterlimit:10;}
	.st8{fill:none;stroke:#4C4948;stroke-width:0.5;stroke-miterlimit:10;}
	.st9{fill:none;stroke:#C9CACA;stroke-width:0.25;stroke-miterlimit:10;}
	.st10{fill:#B28247;}
</style>
<g id="網格">
</g>
<g id="圖層_2">
</g>
<g id="設計">
	<g>
		<g>
			<path class="st1" d="M8.48,57.94c-0.84,0-1.66-0.26-2.36-0.76l0,0c-6.54-4.65-8.08-13.76-3.43-20.31L24.56,6.12
				c4.66-6.54,13.77-8.08,20.31-3.43c0.89,0.63,1.48,1.58,1.66,2.65c0.18,1.08-0.07,2.16-0.7,3.06l-34,47.82
				c-0.63,0.89-1.57,1.48-2.65,1.66C8.94,57.92,8.71,57.94,8.48,57.94z M6.89,56.1c0.6,0.43,1.33,0.6,2.06,0.47
				c0.73-0.12,1.36-0.52,1.79-1.12l34-47.82c0.43-0.6,0.6-1.33,0.47-2.06c-0.12-0.73-0.52-1.36-1.12-1.79
				c-2.88-2.05-6.38-2.86-9.87-2.26c-3.48,0.59-6.53,2.5-8.58,5.38L3.77,37.65C-0.45,43.59,0.95,51.87,6.89,56.1L6.89,56.1z"/>
			<path class="st1" d="M11.87,86.33c-3,0-5.91-0.93-8.41-2.7C2.58,83,1.99,82.06,1.8,80.98s0.07-2.16,0.7-3.05l34-47.82
				c0.63-0.89,1.58-1.48,2.66-1.66c1.08-0.18,2.16,0.07,3.06,0.7l0,0c3.17,2.25,5.27,5.61,5.92,9.44s-0.24,7.69-2.49,10.86
				L23.78,80.2c-2.25,3.17-5.61,5.27-9.44,5.92C13.51,86.26,12.69,86.33,11.87,86.33z M39.84,29.71c-0.15,0-0.31,0.01-0.46,0.04
				c-0.73,0.12-1.36,0.52-1.79,1.12l-34,47.82c-0.43,0.6-0.6,1.33-0.47,2.06c0.12,0.73,0.52,1.36,1.12,1.79
				c2.88,2.05,6.38,2.84,9.87,2.26c3.48-0.59,6.53-2.5,8.58-5.38l21.87-30.76c2.05-2.88,2.85-6.39,2.26-9.87
				c-0.59-3.48-2.5-6.53-5.38-8.58l0,0C40.97,29.89,40.41,29.71,39.84,29.71z"/>
		</g>
	</g>
</g>
</svg>
