<svg xmlns="http://www.w3.org/2000/svg" viewBox="0 0 131.82 54.16"><defs><style>.cls-1{fill:#4c4948;}</style></defs><g id="設計"><path class="cls-1" d="M47.93,41.18V20.85H59.25v1.09H49.4v8h8.68V31H49.4v9.1H59.52v1.08Z"/><path class="cls-1" d="M93.8,41.18V20.85h11.31v1.09H95.27v8H104V31H95.27v9.1h10.12v1.08Z"/><path class="cls-1" d="M118.25,22.68h-.13V41.21h-1.28V20.85h1.67c3.74,5.83,9.69,14.9,12,18.64h.05V20.85h1.3V41.21h-1.89C127.16,36.72,121.47,28,118.25,22.68Z"/><path class="cls-1" d="M74.85,41.63a11.15,11.15,0,0,1-5.11-1.28V39a10,10,0,0,0,5,1.56c2.72.11,5.5-1.33,5.44-4.3,0-2.22-1.51-3.49-5.1-5.08-4.22-1.85-5-3.27-5-5.38,0-3.21,2.69-5.32,5.88-5.29a9.5,9.5,0,0,1,4.57,1v1.59a7,7,0,0,0-4.38-1.5c-2.44,0-4.57,1.75-4.63,3.88-.06,1.86.69,3,4.35,4.58,4.16,1.83,5.74,3.38,5.77,5.9C81.7,39.94,78.54,41.69,74.85,41.63Z"/><rect class="cls-1" x="49.69" y="16.91" width="7.99" height="0.88"/><path class="cls-1" d="M5.32,36.35a2.55,2.55,0,0,1-1.48-.47h0A9.15,9.15,0,0,1,1.69,23.13L15.41,3.84A9.14,9.14,0,0,1,28.15,1.69a2.51,2.51,0,0,1,1,1.66,2.52,2.52,0,0,1-.44,1.92l-21.33,30a2.59,2.59,0,0,1-1.66,1A3.25,3.25,0,0,1,5.32,36.35Zm-1-1.16a1.72,1.72,0,0,0,1.3.3,1.77,1.77,0,0,0,1.12-.7l21.33-30a1.71,1.71,0,0,0-.41-2.41A8.16,8.16,0,0,0,21.47,1a8.24,8.24,0,0,0-5.38,3.37L2.37,23.62a8.31,8.31,0,0,0,2,11.57Z"/><path class="cls-1" d="M7.45,54.16a9.06,9.06,0,0,1-5.27-1.69A2.58,2.58,0,0,1,1.13,50.8a2.55,2.55,0,0,1,.44-1.91l21.33-30a2.57,2.57,0,0,1,1.67-1,2.54,2.54,0,0,1,1.91.44h0A9.12,9.12,0,0,1,28.63,31L14.92,50.32A9.1,9.1,0,0,1,9,54,8.89,8.89,0,0,1,7.45,54.16ZM25,18.64l-.29,0a1.74,1.74,0,0,0-1.13.71l-21.33,30a1.75,1.75,0,0,0,.41,2.42,8.3,8.3,0,0,0,11.58-2L28,30.54A8.31,8.31,0,0,0,26,19h0A1.75,1.75,0,0,0,25,18.64Z"/></g></svg>