<?xml version="1.0" encoding="utf-8"?>
<!-- Generator: Adobe Illustrator 25.0.1, SVG Export Plug-In . SVG Version: 6.00 Build 0)  -->
<svg version="1.1" xmlns="http://www.w3.org/2000/svg" xmlns:xlink="http://www.w3.org/1999/xlink" x="0px" y="0px"
	 viewBox="0 0 203.97 60.11" style="enable-background:new 0 0 203.97 60.11;" xml:space="preserve">
<style type="text/css">
	.st0{fill:#B5B5B6;}
	.st1{fill:#4C4948;}
	.st2{fill:#9D2D31;}
	.st3{fill:none;stroke:#4C4948;stroke-width:0.25;stroke-miterlimit:10;}
	.st4{opacity:0.38;}
	.st5{clip-path:url(#SVGID_4_);}
	.st6{fill:none;stroke:#9FA0A0;stroke-width:0.25;stroke-miterlimit:10;}
	.st7{fill:none;stroke:#727171;stroke-width:0.25;stroke-miterlimit:10;}
	.st8{fill:none;stroke:#4C4948;stroke-width:0.5;stroke-miterlimit:10;}
	.st9{fill:none;stroke:#C9CACA;stroke-width:0.25;stroke-miterlimit:10;}
	.st10{fill:#B28247;}
</style>
<g id="網格">
</g>
<g id="圖層_2">
</g>
<g id="設計">
	<g>
		<g>
			<g>
				<path class="st1" d="M0,59.03V9.6h27.51v2.63H3.57v19.42h21.11v2.63H3.57V56.4h24.61v2.63H0z"/>
				<path class="st1" d="M111.52,59.03V9.6h27.51v2.63h-23.94v19.42h21.11v2.63h-21.11V56.4h24.61v2.63H111.52z"/>
				<path class="st1" d="M170.97,14.05h-0.32V59.1h-3.1V9.6h4.05c9.1,14.16,23.56,36.21,29.09,45.31h0.11l0-45.31h3.17v49.5h-4.59
					C192.64,48.17,178.8,27,170.97,14.05z"/>
				<path class="st1" d="M65.44,60.11c-4.18-0.07-8.9-1.08-12.41-3.1v-3.37c3.98,2.29,7.36,3.58,12.21,3.78
					c6.61,0.27,13.35-3.24,13.22-10.45c-0.1-5.39-3.67-8.49-12.41-12.34C55.8,30.1,53.84,26.66,53.84,21.54
					c0-7.82,6.54-12.95,14.3-12.88c6.14,0.05,8.77,1.35,11.13,2.43v3.84c-3.71-2.29-5.86-3.64-10.66-3.64
					c-5.93,0-11.1,4.25-11.26,9.44c-0.14,4.52,1.69,7.21,10.59,11.13c10.11,4.45,13.94,8.23,14.03,14.36
					C82.1,56,74.41,60.25,65.44,60.11z"/>
				<rect x="4.27" class="st1" width="19.42" height="2.13"/>
			</g>
		</g>
	</g>
</g>
</svg>
